# xmcd
#
# Track frame offsets: 
#        150
#        11557
#        37965
#        55840
#        68337
#        80692
#        103290
#        117122
#        131235
#        144790
#        154192
#        166000
#        177862
#        191735
#        206035
#        217622
#
# Disc length: 3062 seconds
#
# Revision: 0
# Processed by: cddbd v1.5.2PL0 Copyright (c) Steve Scherf et al.
# Submitted via: ExactAudioCopy v0.99pb4
#
DISCID=d20bf410
DTITLE=Various Artist - Everybody's Blues
DYEAR=1995
DGENRE=Blues
TTITLE0=Boom Boom - John Lee Hooker
TTITLE1=No Rollin' Blues - Jimmy Witherspoon
TTITLE2=Driftin' Blues - Charles Brown
TTITLE3=Overhead Blues - Jack Dupree
TTITLE4=Blues Before Sunrise - Elmore James
TTITLE5=Ridin' on Down - Big Bill Broonzy
TTITLE6=Wandering Blues - John Lee Hooker
TTITLE7=Billies' Blues - Billie Holiday
TTITLE8=Big Black Cadillac Blues - Sam Lightnin' Hopkins
TTITLE9=Slave for your Love - Roosevelt Sykes
TTITLE10=I'm so all alone - Memphis Slim
TTITLE11=Everybody's Blues - Jack Dupree
TTITLE12=Riding in the Moonlight/ Howlin' Wolf
TTITLE13=Dust my Blues - Elmore James
TTITLE14=Dissatisfied - Muddy Waters
TTITLE15=Brown Skin Woman - Howlin' Wolf
EXTD=
EXTT0=
EXTT1=
EXTT2=
EXTT3=
EXTT4=
EXTT5=
EXTT6=
EXTT7=
EXTT8=
EXTT9=
EXTT10=
EXTT11=
EXTT12=
EXTT13=
EXTT14=
EXTT15=
PLAYORDER=
